<svg width="339" height="91" viewBox="0 0 339 91" fill="none" xmlns="http://www.w3.org/2000/svg">
<rect x="15.0361" y="0.292358" width="308.68" height="3.47546" fill="#451B0B"/>
<rect x="15.0361" y="87.1735" width="308.68" height="3.47546" fill="#451B0B"/>
<rect x="323.723" y="3.77209" width="5.768" height="3.47442" fill="#451B0B"/>
<rect width="5.768" height="3.47442" transform="matrix(-1 0 0 1 15.0361 3.77209)" fill="#451B0B"/>
<rect x="329.497" y="7.24603" width="2.88272" height="3.47288" fill="#451B0B"/>
<rect width="2.88272" height="3.47288" transform="matrix(-1 0 0 1 9.27539 7.24603)" fill="#451B0B"/>
<rect x="332.375" y="10.7137" width="2.88272" height="3.47288" fill="#451B0B"/>
<rect width="2.88272" height="3.47288" transform="matrix(-1 0 0 1 6.39746 10.7137)" fill="#451B0B"/>
<rect x="335.259" y="14.1935" width="2.88486" height="62.5583" fill="#451B0B"/>
<rect width="2.88486" height="62.5583" transform="matrix(-1 0 0 1 3.50195 14.1935)" fill="#451B0B"/>
<rect x="332.375" y="76.7522" width="2.88272" height="3.47288" fill="#451B0B"/>
<rect width="2.88272" height="3.47288" transform="matrix(-1 0 0 1 6.39746 76.7522)" fill="#451B0B"/>
<rect x="329.497" y="80.2321" width="2.88272" height="3.47288" fill="#451B0B"/>
<rect width="2.88272" height="3.47288" transform="matrix(-1 0 0 1 9.27539 80.2321)" fill="#451B0B"/>
<rect x="323.723" y="83.6997" width="5.768" height="3.47442" fill="#451B0B"/>
<rect width="5.768" height="3.47442" transform="matrix(-1 0 0 1 15.0361 83.6997)" fill="#451B0B"/>
<rect x="15.0361" y="3.77209" width="308.68" height="83.4111" fill="#BC8C61"/>
<rect x="323.723" y="7.24603" width="5.76972" height="76.4601" fill="#BC8C61"/>
<rect x="329.497" y="10.7137" width="2.88486" height="69.5092" fill="#BC8C61"/>
<rect x="332.375" y="14.1935" width="2.88486" height="62.5583" fill="#BC8C61"/>
<rect x="3.50195" y="14.1935" width="2.88486" height="62.5583" fill="#BC8C61"/>
<rect x="6.39746" y="10.7137" width="2.88486" height="69.5092" fill="#BC8C61"/>
<rect x="9.27539" y="7.24603" width="5.76972" height="76.4601" fill="#BC8C61"/>
<rect x="22.0684" y="8.00049" width="294.097" height="2.86214" fill="#B47C57"/>
<rect x="22.0684" y="79.5536" width="294.097" height="2.86214" fill="#B47C57"/>
<rect x="316.154" y="10.8663" width="5.49549" height="2.86129" fill="#B47C57"/>
<rect width="5.49549" height="2.86129" transform="matrix(-1 0 0 1 22.0684 10.8663)" fill="#B47C57"/>
<rect x="321.656" y="13.7198" width="2.74652" height="2.86002" fill="#B47C57"/>
<rect width="2.74652" height="2.86002" transform="matrix(-1 0 0 1 16.5635 13.7198)" fill="#B47C57"/>
<rect x="324.403" y="16.5858" width="2.74652" height="2.86002" fill="#B47C57"/>
<rect width="2.74652" height="2.86002" transform="matrix(-1 0 0 1 13.8252 16.5858)" fill="#B47C57"/>
<rect x="327.153" y="19.4514" width="2.74857" height="51.5186" fill="#B47C57"/>
<rect width="2.74857" height="51.5186" transform="matrix(-1 0 0 1 11.0732 19.4514)" fill="#B47C57"/>
<rect x="324.403" y="70.9624" width="2.74652" height="2.86002" fill="#B47C57"/>
<rect width="2.74652" height="2.86002" transform="matrix(-1 0 0 1 13.8252 70.9624)" fill="#B47C57"/>
<rect x="321.656" y="73.8281" width="2.74652" height="2.86002" fill="#B47C57"/>
<rect width="2.74652" height="2.86002" transform="matrix(-1 0 0 1 16.5635 73.8281)" fill="#B47C57"/>
<rect x="316.154" y="76.6938" width="5.49549" height="2.86129" fill="#B47C57"/>
<rect width="5.49549" height="2.86129" transform="matrix(-1 0 0 1 22.0684 76.6938)" fill="#B47C57"/>
<rect x="22.0684" y="10.8663" width="294.097" height="68.6915" fill="#FCBD80"/>
<rect x="316.154" y="13.7198" width="5.49713" height="62.9672" fill="#FCBD80"/>
<rect x="321.656" y="16.5858" width="2.74857" height="57.2429" fill="#FCBD80"/>
<rect x="324.403" y="19.4514" width="2.74857" height="51.5186" fill="#FCBD80"/>
<rect x="11.0732" y="19.4514" width="2.74857" height="51.5186" fill="#FCBD80"/>
<rect x="13.8252" y="16.5858" width="2.74857" height="57.2429" fill="#FCBD80"/>
<rect x="16.5635" y="13.7198" width="5.49713" height="62.9672" fill="#FCBD80"/>
</svg>
