<svg width="50" height="34" viewBox="0 0 50 34" fill="none" xmlns="http://www.w3.org/2000/svg">
<rect x="1.38818" y="31.9434" width="47.2214" height="1.38886" fill="black"/>
<rect x="48.6113" y="9.72241" width="1.38886" height="22.2218" fill="black"/>
<rect y="9.72241" width="1.38886" height="22.2218" fill="black"/>
<rect x="16.6665" y="9.72241" width="1.38886" height="22.2218" fill="black"/>
<rect x="1.38818" y="13.8877" width="27.7773" height="1.38886" fill="black"/>
<rect x="29.166" y="11.1118" width="1.38886" height="6.94432" fill="black"/>
<rect x="37.4995" y="11.1118" width="1.38886" height="6.94432" fill="black"/>
<rect x="30.5557" y="9.72241" width="6.94432" height="1.38886" fill="black"/>
<rect x="33.333" y="12.4998" width="1.38886" height="4.16659" fill="black"/>
<rect x="31.9434" y="12.4998" width="4.16659" height="1.38886" fill="black"/>
<rect x="30.5557" y="18.0557" width="6.94432" height="1.38886" fill="black"/>
<rect x="37.4995" y="13.8877" width="12.4998" height="1.38886" fill="black"/>
<rect x="47.2217" y="6.94385" width="1.38886" height="2.77773" fill="black"/>
<rect x="43.0552" y="6.94385" width="1.38886" height="2.77773" fill="black"/>
<rect x="44.4434" y="9.72241" width="1.38886" height="2.77773" fill="black"/>
<rect x="37.4995" y="11.1118" width="8.33319" height="1.38886" fill="black"/>
<rect x="45.8325" y="4.1665" width="1.38886" height="2.77773" fill="black"/>
<rect x="41.666" y="4.1665" width="1.38886" height="2.77773" fill="black"/>
<rect x="44.4434" y="2.77734" width="1.38886" height="1.38886" fill="black"/>
<rect x="43.0552" y="1.38794" width="1.38886" height="1.38886" fill="black"/>
<rect x="5.55566" y="1.38794" width="1.38886" height="1.38886" fill="black"/>
<rect x="11.1118" y="1.38794" width="1.38886" height="1.38886" fill="black"/>
<rect x="15.2773" y="1.38794" width="1.38886" height="1.38886" fill="black"/>
<rect x="38.8872" y="1.38794" width="1.38886" height="1.38886" fill="black"/>
<rect x="4.1665" y="2.77734" width="1.38886" height="1.38886" fill="black"/>
<rect x="12.5" y="2.77734" width="1.38886" height="1.38886" fill="black"/>
<rect x="16.6665" y="2.77734" width="24.9996" height="1.38886" fill="black"/>
<rect x="2.77734" y="4.1665" width="1.38886" height="2.77773" fill="black"/>
<rect x="1.38818" y="6.94385" width="1.38886" height="2.77773" fill="black"/>
<rect x="15.2773" y="6.94385" width="1.38886" height="2.77773" fill="black"/>
<rect x="12.5" y="9.72241" width="1.38886" height="2.77773" fill="black"/>
<rect x="2.77734" y="9.72241" width="1.38886" height="2.77773" fill="black"/>
<rect x="2.77734" y="11.1118" width="11.1109" height="1.38886" fill="black"/>
<rect x="4.1665" y="6.94385" width="8.33319" height="1.38886" fill="black"/>
<rect x="4.1665" y="6.94385" width="1.38886" height="2.77773" fill="black"/>
<rect x="5.55566" y="4.1665" width="1.38886" height="2.77773" fill="black"/>
<rect x="6.94385" y="2.77734" width="2.77773" height="1.38886" fill="black"/>
<rect x="11.1118" y="6.94385" width="1.38886" height="2.77773" fill="black"/>
<rect x="9.72266" y="4.1665" width="1.38886" height="2.77773" fill="black"/>
<rect x="19.4438" y="6.94385" width="1.38886" height="2.77773" fill="black"/>
<rect x="20.833" y="9.72241" width="1.38886" height="2.77773" fill="black"/>
<rect x="22.2222" y="11.1118" width="6.94432" height="1.38886" fill="black"/>
<rect x="20.833" y="16.6665" width="8.33319" height="1.38886" fill="black"/>
<rect x="20.833" y="20.833" width="24.9996" height="1.38886" fill="black"/>
<rect x="20.833" y="24.9995" width="24.9996" height="1.38886" fill="black"/>
<rect x="20.833" y="29.1663" width="24.9996" height="1.38886" fill="black"/>
<rect x="20.833" y="16.6665" width="1.38886" height="13.8886" fill="black"/>
<rect x="12.5" y="16.6665" width="1.38886" height="13.8886" fill="black"/>
<rect x="4.1665" y="16.6665" width="1.38886" height="13.8886" fill="black"/>
<rect x="4.1665" y="16.6665" width="9.72205" height="1.38886" fill="black"/>
<rect x="4.1665" y="29.1663" width="9.72205" height="1.38886" fill="black"/>
<rect x="4.1665" y="24.9995" width="9.72205" height="1.38886" fill="black"/>
<rect x="4.1665" y="20.833" width="9.72205" height="1.38886" fill="black"/>
<rect x="44.4434" y="16.6665" width="1.38886" height="13.8886" fill="black"/>
<rect x="38.8872" y="16.6665" width="6.94432" height="1.38886" fill="black"/>
<rect x="20.833" y="6.94385" width="22.2218" height="1.38886" fill="black"/>
<rect x="13.8877" y="4.1665" width="1.38886" height="2.77773" fill="black"/>
<rect x="18.0557" y="4.1665" width="1.38886" height="2.77773" fill="black"/>
<rect x="6.94385" width="36.1105" height="1.38886" fill="black"/>
<rect x="6.94385" y="1.38794" width="4.16659" height="1.38886" fill="#FFE303"/>
<rect x="5.55566" y="2.77734" width="1.38886" height="1.38886" fill="#FFE303"/>
<rect x="4.1665" y="4.1665" width="1.38886" height="1.38886" fill="#FFE303"/>
<rect x="2.77734" y="6.94385" width="1.38886" height="1.38886" fill="#FFE303"/>
<rect x="1.38818" y="9.72241" width="1.38886" height="1.38886" fill="#FFE303"/>
<rect x="15.2773" y="9.72241" width="1.38886" height="1.38886" fill="#FFE303"/>
<rect x="13.8877" y="6.94385" width="1.38886" height="1.38886" fill="#FFE303"/>
<rect x="12.5" y="4.1665" width="1.38886" height="1.38886" fill="#FFE303"/>
<rect x="11.1118" y="2.77734" width="1.38886" height="1.38886" fill="#FFE303"/>
<rect x="4.1665" y="5.55591" width="1.38886" height="1.38886" fill="#F4A716"/>
<rect x="2.77734" y="8.33325" width="1.38886" height="1.38886" fill="#F4A716"/>
<rect x="1.38818" y="11.1118" width="1.38886" height="1.38886" fill="#F4A716"/>
<rect x="13.8877" y="9.72241" width="1.38886" height="1.38886" fill="#F4A716"/>
<rect x="13.8877" y="8.33325" width="1.38886" height="1.38886" fill="#F4A716"/>
<rect x="12.5" y="5.55591" width="1.38886" height="4.16659" fill="#F4A716"/>
<rect x="9.72266" y="2.77734" width="1.38886" height="1.38886" fill="#F4A716"/>
<rect x="6.94385" y="4.1665" width="1.38886" height="1.38886" fill="#5D2E1C"/>
<rect x="8.33301" y="4.1665" width="1.38886" height="1.38886" fill="#5D2E1C"/>
<rect x="8.33301" y="5.55591" width="1.38886" height="1.38886" fill="#834D29"/>
<rect x="5.55566" y="19.4436" width="1.38886" height="1.38886" fill="#834D29"/>
<rect x="11.1118" y="23.6116" width="1.38886" height="1.38886" fill="#834D29"/>
<rect x="8.33301" y="19.4436" width="4.16659" height="1.38886" fill="#834D29"/>
<rect x="5.55566" y="23.6116" width="4.16659" height="1.38886" fill="#834D29"/>
<rect x="6.94385" y="27.7769" width="5.55546" height="1.38886" fill="#834D29"/>
<rect x="5.55566" y="22.2222" width="6.94432" height="1.38886" fill="#834D29"/>
<rect x="5.55566" y="26.3875" width="6.94432" height="1.38886" fill="#834D29"/>
<rect x="5.55566" y="9.72241" width="6.94432" height="1.38886" fill="#834D29"/>
<rect x="6.94385" y="8.33325" width="4.16659" height="1.38886" fill="#834D29"/>
<rect x="6.94385" y="5.55591" width="1.38886" height="1.38886" fill="#5D2E1C"/>
<rect x="5.55566" y="8.33325" width="1.38886" height="1.38886" fill="#5D2E1C"/>
<rect x="4.1665" y="9.72241" width="1.38886" height="1.38886" fill="#5D2E1C"/>
<rect x="5.55566" y="18.0557" width="6.94432" height="1.38886" fill="#5D2E1C"/>
<rect x="6.94385" y="19.4436" width="1.38886" height="1.38886" fill="#5D2E1C"/>
<rect x="9.72266" y="23.6116" width="1.38886" height="1.38886" fill="#5D2E1C"/>
<rect x="5.55566" y="27.7769" width="1.38886" height="1.38886" fill="#5D2E1C"/>
<rect x="11.1118" y="5.55591" width="1.38886" height="1.38886" fill="#F4A716"/>
<rect x="11.1118" y="4.1665" width="1.38886" height="1.38886" fill="#F4A716"/>
<rect x="13.8877" y="11.1118" width="2.77773" height="2.77773" fill="#F4A716"/>
<rect x="1.38818" y="12.4998" width="15.2775" height="1.38886" fill="#F4A716"/>
<rect x="12.5" y="1.38794" width="2.77773" height="1.38886" fill="#FFE303"/>
<rect x="15.2773" y="4.1665" width="2.77773" height="1.38886" fill="#FFE303"/>
<rect x="43.0552" y="4.1665" width="2.77773" height="1.38886" fill="#FFE303"/>
<rect x="44.4434" y="5.55591" width="1.38886" height="1.38886" fill="#FFE303"/>
<rect x="45.8325" y="6.94385" width="1.38886" height="2.77773" fill="#FFE303"/>
<rect x="47.2217" y="9.72241" width="1.38886" height="1.38886" fill="#FFE303"/>
<rect x="19.4438" y="9.72241" width="1.38886" height="1.38886" fill="#FFE303"/>
<rect x="18.0557" y="6.94385" width="1.38886" height="1.38886" fill="#FFE303"/>
<rect x="16.6665" y="5.55591" width="1.38886" height="1.38886" fill="#FFE303"/>
<rect x="13.8877" y="2.77734" width="2.77773" height="1.38886" fill="white"/>
<rect x="41.666" y="2.77734" width="2.77773" height="1.38886" fill="white"/>
<rect x="40.2769" y="1.38794" width="2.77773" height="1.38886" fill="#FFE303"/>
<rect x="13.8877" y="16.6665" width="2.77773" height="13.8886" fill="#F0A815"/>
<rect x="1.38818" y="16.6665" width="2.77773" height="13.8886" fill="#F0A815"/>
<rect x="1.38818" y="15.2771" width="15.2775" height="1.38886" fill="#D68917"/>
<rect x="1.38818" y="30.5554" width="15.2775" height="1.38886" fill="#D68917"/>
<rect x="18.0557" y="30.5554" width="30.555" height="1.38886" fill="#EFA91E"/>
<rect x="18.0557" y="20.833" width="2.77773" height="9.72205" fill="#FFCA0C"/>
<rect x="45.8325" y="20.833" width="2.77773" height="9.72205" fill="#FFCA0A"/>
<rect width="2.77773" height="4.16659" transform="matrix(1 0 0 -1 18.0557 19.4436)" fill="#F0A815"/>
<rect width="11.1109" height="1.38886" transform="matrix(1 0 0 -1 18.0557 16.6665)" fill="#F0A815"/>
<rect width="9.72205" height="1.38886" transform="matrix(1 0 0 -1 38.8872 16.6665)" fill="#F0A815"/>
<rect width="2.77773" height="2.77773" transform="matrix(1 0 0 -1 45.8325 19.4436)" fill="#FFCB0A"/>
<rect width="2.77773" height="1.38886" transform="matrix(1 0 0 -1 18.0557 20.833)" fill="#FEE610"/>
<rect width="6.94432" height="1.38886" transform="matrix(1 0 0 -1 22.2222 19.4436)" fill="#5D2E1C"/>
<rect width="8.33319" height="1.38886" transform="matrix(1 0 0 -1 22.2222 20.833)" fill="#804E2A"/>
<rect width="6.94432" height="1.38886" transform="matrix(1 0 0 -1 30.5557 20.833)" fill="#5E2D1F"/>
<rect width="5.55546" height="1.38886" transform="matrix(1 0 0 -1 37.4995 20.833)" fill="#7F4D2A"/>
<rect width="1.38886" height="1.38886" transform="matrix(1 0 0 -1 29.166 19.4436)" fill="#451F16"/>
<rect width="1.38886" height="1.38886" transform="matrix(1 0 0 -1 37.4995 19.4436)" fill="#451F16"/>
<rect width="5.55546" height="1.38886" transform="matrix(1 0 0 -1 38.8872 19.4436)" fill="#5D2E1C"/>
<rect width="1.38886" height="2.77773" transform="matrix(1 0 0 -1 43.0552 20.833)" fill="#5D2E1C"/>
<rect width="1.38886" height="1.38886" transform="matrix(1 0 0 -1 26.3877 23.6116)" fill="#5D2E1C"/>
<rect width="1.38886" height="1.38886" transform="matrix(1 0 0 -1 38.8872 9.72241)" fill="#5D2E1C"/>
<rect width="1.38886" height="1.38886" transform="matrix(1 0 0 -1 23.6113 6.94385)" fill="#5D2E1C"/>
<rect width="1.38886" height="1.38886" transform="matrix(1 0 0 -1 34.7222 5.55591)" fill="#5D2E1C"/>
<rect width="1.38886" height="1.38886" transform="matrix(1 0 0 -1 33.333 24.9995)" fill="#5D2E1C"/>
<rect width="1.38886" height="1.38886" transform="matrix(1 0 0 -1 40.2769 27.7769)" fill="#5D2E1C"/>
<rect width="1.38886" height="1.38886" transform="matrix(1 0 0 -1 41.666 27.7769)" fill="#5D2E1C"/>
<rect width="1.38886" height="1.38886" transform="matrix(1 0 0 -1 22.2222 29.1663)" fill="#5D2E1C"/>
<rect width="1.38886" height="2.77773" transform="matrix(1 0 0 -1 43.0552 29.1663)" fill="#5D2E1C"/>
<rect width="1.38886" height="2.77773" transform="matrix(1 0 0 -1 43.0552 24.9995)" fill="#5D2E1C"/>
<rect width="2.77773" height="1.38886" transform="matrix(1 0 0 -1 45.8325 20.833)" fill="#FFE301"/>
<rect x="22.2222" y="22.2222" width="4.16659" height="1.38886" fill="#824C28"/>
<rect x="27.7769" y="22.2222" width="15.2775" height="1.38886" fill="#824C28"/>
<rect x="22.2222" y="23.6116" width="11.1109" height="1.38886" fill="#824C28"/>
<rect x="34.7222" y="23.6116" width="8.33319" height="1.38886" fill="#824C28"/>
<rect width="18.0552" height="1.38886" transform="matrix(1 0 0 -1 22.2222 27.7769)" fill="#824C28"/>
<rect width="19.4441" height="1.38886" transform="matrix(1 0 0 -1 23.6113 29.1663)" fill="#824C28"/>
<rect x="18.0557" y="12.4998" width="11.1109" height="1.38886" fill="#FCC80F"/>
<rect x="18.0557" y="11.1118" width="2.77773" height="1.38886" fill="#FCC80F"/>
<rect x="18.0557" y="9.72241" width="1.38886" height="1.38886" fill="#FCC80F"/>
<rect x="16.6665" y="8.33325" width="2.77773" height="1.38886" fill="#FCC80F"/>
<rect x="16.6665" y="6.94385" width="1.38886" height="1.38886" fill="#FCC80F"/>
<rect x="15.2773" y="5.55591" width="1.38886" height="1.38886" fill="#FCC80F"/>
<rect x="38.8872" y="12.4998" width="9.72205" height="1.38886" fill="#FCC80F"/>
<rect x="47.2217" y="11.1118" width="1.38886" height="1.38886" fill="#FCC80F"/>
<rect x="45.8325" y="9.72241" width="1.38886" height="2.77773" fill="#FCC80F"/>
<rect x="44.4434" y="6.94385" width="1.38886" height="2.77773" fill="#FCC80F"/>
<rect x="43.0552" y="5.55591" width="1.38886" height="1.38886" fill="#FCC80F"/>
<rect x="20.833" y="8.33325" width="18.0552" height="1.38886" fill="#834D29"/>
<rect x="22.2222" y="9.72241" width="8.33319" height="1.38886" fill="#834D29"/>
<rect x="40.2769" y="8.33325" width="2.77773" height="1.38886" fill="#834D29"/>
<rect x="37.4995" y="9.72241" width="6.94432" height="1.38886" fill="#834D29"/>
<rect x="19.4438" y="4.1665" width="15.2775" height="1.38886" fill="#834D29"/>
<rect x="19.4438" y="5.55591" width="4.16659" height="1.38886" fill="#834D29"/>
<rect x="24.9995" y="5.55591" width="16.6664" height="1.38886" fill="#834D29"/>
<rect x="36.1113" y="4.1665" width="5.55546" height="1.38886" fill="#834D29"/>
<rect x="16.6665" y="1.38794" width="22.2218" height="1.38886" fill="#834D29"/>
<rect x="30.5557" y="11.1118" width="6.94432" height="1.38886" fill="#FEE401"/>
<rect x="30.5557" y="16.6665" width="6.94432" height="1.38886" fill="#F1A917"/>
<rect x="30.5557" y="12.4998" width="1.38886" height="4.16659" fill="#FFCB07"/>
<rect x="31.9434" y="13.8877" width="1.38886" height="1.38886" fill="#F0A513"/>
<rect x="31.9434" y="15.2771" width="1.38886" height="1.38886" fill="#FFCB07"/>
<rect x="34.7222" y="13.8877" width="1.38886" height="1.38886" fill="#F0A513"/>
<rect x="34.7222" y="15.2771" width="1.38886" height="1.38886" fill="#FFCB07"/>
<rect x="36.1113" y="12.4998" width="1.38886" height="4.16659" fill="#FFCB07"/>
</svg>
