<svg width="232" height="155" viewBox="0 0 232 155" fill="none" xmlns="http://www.w3.org/2000/svg">
<rect x="6.66797" y="147.739" width="218.342" height="6.42182" fill="black"/>
<rect x="225.017" y="44.9938" width="6.42182" height="102.749" fill="black"/>
<rect x="0.249023" y="44.9938" width="6.42182" height="102.749" fill="black"/>
<rect x="77.3105" y="44.9938" width="6.42182" height="102.749" fill="black"/>
<rect x="6.66797" y="64.2532" width="128.436" height="6.42182" fill="black"/>
<rect x="135.108" y="51.4178" width="6.42182" height="32.1091" fill="black"/>
<rect x="173.637" y="51.4178" width="6.42182" height="32.1091" fill="black"/>
<rect x="141.53" y="44.9938" width="32.1091" height="6.42182" fill="black"/>
<rect x="154.372" y="57.8354" width="6.42182" height="19.2655" fill="black"/>
<rect x="147.949" y="57.8354" width="19.2655" height="6.42182" fill="black"/>
<rect x="141.53" y="83.5248" width="32.1091" height="6.42182" fill="black"/>
<rect x="173.637" y="64.2532" width="57.7964" height="6.42182" fill="black"/>
<rect x="218.592" y="32.1461" width="6.42182" height="12.8436" fill="black"/>
<rect x="199.326" y="32.1461" width="6.42182" height="12.8436" fill="black"/>
<rect x="205.745" y="44.9938" width="6.42182" height="12.8436" fill="black"/>
<rect x="173.637" y="51.4178" width="38.5309" height="6.42182" fill="black"/>
<rect x="212.17" y="19.3048" width="6.42182" height="12.8436" fill="black"/>
<rect x="192.904" y="19.3048" width="6.42182" height="12.8436" fill="black"/>
<rect x="205.745" y="12.8808" width="6.4199" height="6.4199" fill="black"/>
<rect x="199.326" y="6.45685" width="6.4199" height="6.4199" fill="black"/>
<rect x="25.9385" y="6.45685" width="6.4199" height="6.4199" fill="black"/>
<rect x="51.626" y="6.45685" width="6.4199" height="6.4199" fill="black"/>
<rect x="70.8857" y="6.45685" width="6.4199" height="6.4199" fill="black"/>
<rect x="180.056" y="6.45685" width="6.4199" height="6.4199" fill="black"/>
<rect x="19.5146" y="12.8808" width="6.4199" height="6.4199" fill="black"/>
<rect x="58.0449" y="12.8808" width="6.4199" height="6.4199" fill="black"/>
<rect x="77.3105" y="12.8808" width="115.593" height="6.42182" fill="black"/>
<rect x="13.0898" y="19.3048" width="6.42182" height="12.8436" fill="black"/>
<rect x="6.66797" y="32.1461" width="6.42182" height="12.8436" fill="black"/>
<rect x="70.8857" y="32.1461" width="6.42182" height="12.8436" fill="black"/>
<rect x="58.0449" y="44.9938" width="6.42182" height="12.8436" fill="black"/>
<rect x="13.0898" y="44.9938" width="6.42182" height="12.8436" fill="black"/>
<rect x="13.0898" y="51.4178" width="51.3746" height="6.42182" fill="black"/>
<rect x="19.5146" y="32.1461" width="38.5309" height="6.42182" fill="black"/>
<rect x="19.5146" y="32.1461" width="6.42182" height="12.8436" fill="black"/>
<rect x="25.9385" y="19.3048" width="6.42182" height="12.8436" fill="black"/>
<rect x="32.3574" y="12.8808" width="12.8436" height="6.42182" fill="black"/>
<rect x="51.626" y="32.1461" width="6.42182" height="12.8436" fill="black"/>
<rect x="45.2041" y="19.3048" width="6.42182" height="12.8436" fill="black"/>
<rect x="90.1514" y="32.1461" width="6.42182" height="12.8436" fill="black"/>
<rect x="96.5752" y="44.9938" width="6.42182" height="12.8436" fill="black"/>
<rect x="103" y="51.4178" width="32.1091" height="6.42182" fill="black"/>
<rect x="96.5752" y="77.1009" width="38.5309" height="6.42182" fill="black"/>
<rect x="96.5752" y="96.3665" width="115.593" height="6.42182" fill="black"/>
<rect x="96.5752" y="115.632" width="115.593" height="6.42182" fill="black"/>
<rect x="96.5752" y="134.898" width="115.593" height="6.42182" fill="black"/>
<rect x="96.5752" y="77.1009" width="6.42182" height="64.2182" fill="black"/>
<rect x="58.0449" y="77.1009" width="6.42182" height="64.2182" fill="black"/>
<rect x="19.5146" y="77.1009" width="6.42182" height="64.2182" fill="black"/>
<rect x="19.5146" y="77.1009" width="44.9527" height="6.42182" fill="black"/>
<rect x="19.5146" y="134.898" width="44.9527" height="6.42182" fill="black"/>
<rect x="19.5146" y="115.632" width="44.9527" height="6.42182" fill="black"/>
<rect x="19.5146" y="96.3665" width="44.9527" height="6.42182" fill="black"/>
<rect x="205.745" y="77.1009" width="6.42182" height="64.2182" fill="black"/>
<rect x="180.056" y="77.1009" width="32.1091" height="6.42182" fill="black"/>
<rect x="96.5752" y="32.1461" width="102.749" height="6.42182" fill="black"/>
<rect x="64.4639" y="19.3048" width="6.42182" height="12.8436" fill="black"/>
<rect x="83.7344" y="19.3048" width="6.42182" height="12.8436" fill="black"/>
<rect x="32.3574" y="0.0391235" width="166.967" height="6.42182" fill="black"/>
<rect x="32.3574" y="6.45685" width="19.2655" height="6.42182" fill="#FFE303"/>
<rect x="25.9385" y="12.8808" width="6.4199" height="6.4199" fill="#FFE303"/>
<rect x="19.5146" y="19.3048" width="6.4199" height="6.4199" fill="#FFE303"/>
<rect x="13.0898" y="32.1461" width="6.4199" height="6.4199" fill="#FFE303"/>
<rect x="6.66797" y="44.9938" width="6.4199" height="6.4199" fill="#FFE303"/>
<rect x="70.8857" y="44.9938" width="6.4199" height="6.4199" fill="#FFE303"/>
<rect x="64.4639" y="32.1461" width="6.4199" height="6.4199" fill="#FFE303"/>
<rect x="58.0449" y="19.3048" width="6.4199" height="6.4199" fill="#FFE303"/>
<rect x="51.626" y="12.8808" width="6.4199" height="6.4199" fill="#FFE303"/>
<rect x="19.5146" y="25.7285" width="6.4199" height="6.4199" fill="#F4A716"/>
<rect x="13.0898" y="38.5701" width="6.4199" height="6.4199" fill="#F4A716"/>
<rect x="6.66797" y="51.4178" width="6.4199" height="6.4199" fill="#F4A716"/>
<rect x="64.4639" y="44.9938" width="6.4199" height="6.4199" fill="#F4A716"/>
<rect x="64.4639" y="38.5701" width="6.4199" height="6.4199" fill="#F4A716"/>
<rect x="58.0449" y="25.7285" width="6.42182" height="19.2655" fill="#F4A716"/>
<rect x="45.2041" y="12.8808" width="6.4199" height="6.4199" fill="#F4A716"/>
<rect x="32.3574" y="19.3048" width="6.4199" height="6.4199" fill="#5D2E1C"/>
<rect x="38.7793" y="19.3048" width="6.4199" height="6.4199" fill="#5D2E1C"/>
<rect x="38.7793" y="25.7285" width="6.4199" height="6.4199" fill="#834D29"/>
<rect x="25.9385" y="89.9429" width="6.4199" height="6.4199" fill="#834D29"/>
<rect x="51.626" y="109.214" width="6.4199" height="6.4199" fill="#834D29"/>
<rect x="38.7793" y="89.9429" width="19.2655" height="6.42182" fill="#834D29"/>
<rect x="25.9385" y="109.214" width="19.2655" height="6.42182" fill="#834D29"/>
<rect x="32.3574" y="128.474" width="25.6873" height="6.42182" fill="#834D29"/>
<rect x="25.9385" y="102.79" width="32.1091" height="6.42182" fill="#834D29"/>
<rect x="25.9385" y="122.05" width="32.1091" height="6.42182" fill="#834D29"/>
<rect x="25.9385" y="44.9938" width="32.1091" height="6.42182" fill="#834D29"/>
<rect x="32.3574" y="38.5701" width="19.2655" height="6.42182" fill="#834D29"/>
<rect x="32.3574" y="25.7285" width="6.4199" height="6.4199" fill="#5D2E1C"/>
<rect x="25.9385" y="38.5701" width="6.4199" height="6.4199" fill="#5D2E1C"/>
<rect x="19.5146" y="44.9938" width="6.4199" height="6.4199" fill="#5D2E1C"/>
<rect x="25.9385" y="83.5248" width="32.1091" height="6.42182" fill="#5D2E1C"/>
<rect x="32.3574" y="89.9429" width="6.4199" height="6.4199" fill="#5D2E1C"/>
<rect x="45.2041" y="109.214" width="6.4199" height="6.4199" fill="#5D2E1C"/>
<rect x="25.9385" y="128.474" width="6.4199" height="6.4199" fill="#5D2E1C"/>
<rect x="51.626" y="25.7285" width="6.4199" height="6.4199" fill="#F4A716"/>
<rect x="51.626" y="19.3048" width="6.4199" height="6.4199" fill="#F4A716"/>
<rect x="64.4639" y="51.4178" width="12.8436" height="12.8436" fill="#F4A716"/>
<rect x="6.66797" y="57.8354" width="70.64" height="6.42182" fill="#F4A716"/>
<rect x="58.0449" y="6.45685" width="12.8436" height="6.42182" fill="#FFE303"/>
<rect x="70.8857" y="19.3048" width="12.8436" height="6.42182" fill="#FFE303"/>
<rect x="199.326" y="19.3048" width="12.8436" height="6.42182" fill="#FFE303"/>
<rect x="205.745" y="25.7285" width="6.4199" height="6.4199" fill="#FFE303"/>
<rect x="212.17" y="32.1461" width="6.42182" height="12.8436" fill="#FFE303"/>
<rect x="218.592" y="44.9938" width="6.4199" height="6.4199" fill="#FFE303"/>
<rect x="90.1514" y="44.9938" width="6.4199" height="6.4199" fill="#FFE303"/>
<rect x="83.7344" y="32.1461" width="6.4199" height="6.4199" fill="#FFE303"/>
<rect x="77.3105" y="25.7285" width="6.4199" height="6.4199" fill="#FFE303"/>
<rect x="64.4639" y="12.8808" width="12.8436" height="6.42182" fill="white"/>
<rect x="192.904" y="12.8808" width="12.8436" height="6.42182" fill="white"/>
<rect x="186.479" y="6.45685" width="12.8436" height="6.42182" fill="#FFE303"/>
<rect x="64.4639" y="77.1009" width="12.8436" height="64.2182" fill="#F0A815"/>
<rect x="6.66797" y="77.1009" width="12.8436" height="64.2182" fill="#F0A815"/>
<rect x="6.66797" y="70.6772" width="70.64" height="6.42182" fill="#D68917"/>
<rect x="6.66797" y="141.321" width="70.64" height="6.42182" fill="#D68917"/>
<rect x="83.7344" y="141.321" width="141.28" height="6.42182" fill="#EFA91E"/>
<rect x="83.7344" y="96.3665" width="12.8436" height="44.9527" fill="#FFCA0C"/>
<rect x="212.17" y="96.3665" width="12.8436" height="44.9527" fill="#FFCA0A"/>
<rect width="12.8436" height="19.2655" transform="matrix(1 0 0 -1 83.7344 89.9429)" fill="#F0A815"/>
<rect width="51.3746" height="6.42182" transform="matrix(1 0 0 -1 83.7344 77.1009)" fill="#F0A815"/>
<rect width="44.9527" height="6.42182" transform="matrix(1 0 0 -1 180.056 77.1009)" fill="#F0A815"/>
<rect width="12.8436" height="12.8436" transform="matrix(1 0 0 -1 212.17 89.9429)" fill="#FFCB0A"/>
<rect width="12.8436" height="6.42182" transform="matrix(1 0 0 -1 83.7344 96.3665)" fill="#FEE610"/>
<rect width="32.1091" height="6.42182" transform="matrix(1 0 0 -1 103 89.9429)" fill="#5D2E1C"/>
<rect width="38.5309" height="6.42182" transform="matrix(1 0 0 -1 103 96.3665)" fill="#804E2A"/>
<rect width="32.1091" height="6.42182" transform="matrix(1 0 0 -1 141.53 96.3665)" fill="#5E2D1F"/>
<rect width="25.6873" height="6.42182" transform="matrix(1 0 0 -1 173.637 96.3665)" fill="#7F4D2A"/>
<rect width="6.4199" height="6.4199" transform="matrix(1 0 0 -1 135.108 89.9429)" fill="#451F16"/>
<rect width="6.4199" height="6.4199" transform="matrix(1 0 0 -1 173.637 89.9429)" fill="#451F16"/>
<rect width="25.6873" height="6.42182" transform="matrix(1 0 0 -1 180.056 89.9429)" fill="#5D2E1C"/>
<rect width="6.42182" height="12.8436" transform="matrix(1 0 0 -1 199.326 96.3665)" fill="#5D2E1C"/>
<rect width="6.4199" height="6.4199" transform="matrix(1 0 0 -1 122.26 109.214)" fill="#5D2E1C"/>
<rect width="6.4199" height="6.4199" transform="matrix(1 0 0 -1 180.056 44.9938)" fill="#5D2E1C"/>
<rect width="6.4199" height="6.4199" transform="matrix(1 0 0 -1 109.425 32.1461)" fill="#5D2E1C"/>
<rect width="6.4199" height="6.4199" transform="matrix(1 0 0 -1 160.796 25.7285)" fill="#5D2E1C"/>
<rect width="6.4199" height="6.4199" transform="matrix(1 0 0 -1 154.372 115.632)" fill="#5D2E1C"/>
<rect width="6.4199" height="6.4199" transform="matrix(1 0 0 -1 186.479 128.474)" fill="#5D2E1C"/>
<rect width="6.4199" height="6.4199" transform="matrix(1 0 0 -1 192.904 128.474)" fill="#5D2E1C"/>
<rect width="6.4199" height="6.4199" transform="matrix(1 0 0 -1 103 134.898)" fill="#5D2E1C"/>
<rect width="6.42182" height="12.8436" transform="matrix(1 0 0 -1 199.326 134.898)" fill="#5D2E1C"/>
<rect width="6.42182" height="12.8436" transform="matrix(1 0 0 -1 199.326 115.632)" fill="#5D2E1C"/>
<rect width="12.8436" height="6.42182" transform="matrix(1 0 0 -1 212.17 96.3665)" fill="#FFE301"/>
<rect x="103" y="102.79" width="19.2655" height="6.42182" fill="#824C28"/>
<rect x="128.684" y="102.79" width="70.64" height="6.42182" fill="#824C28"/>
<rect x="103" y="109.214" width="51.3746" height="6.42182" fill="#824C28"/>
<rect x="160.796" y="109.214" width="38.5309" height="6.42182" fill="#824C28"/>
<rect width="83.4837" height="6.42182" transform="matrix(1 0 0 -1 103 128.474)" fill="#824C28"/>
<rect width="89.9055" height="6.42182" transform="matrix(1 0 0 -1 109.425 134.898)" fill="#824C28"/>
<rect x="83.7344" y="57.8354" width="51.3746" height="6.42182" fill="#FCC80F"/>
<rect x="83.7344" y="51.4178" width="12.8436" height="6.42182" fill="#FCC80F"/>
<rect x="83.7344" y="44.9938" width="6.4199" height="6.4199" fill="#FCC80F"/>
<rect x="77.3105" y="38.5701" width="12.8436" height="6.42182" fill="#FCC80F"/>
<rect x="77.3105" y="32.1461" width="6.4199" height="6.4199" fill="#FCC80F"/>
<rect x="70.8857" y="25.7285" width="6.4199" height="6.4199" fill="#FCC80F"/>
<rect x="180.056" y="57.8354" width="44.9527" height="6.42182" fill="#FCC80F"/>
<rect x="218.592" y="51.4178" width="6.4199" height="6.4199" fill="#FCC80F"/>
<rect x="212.17" y="44.9938" width="6.42182" height="12.8436" fill="#FCC80F"/>
<rect x="205.745" y="32.1461" width="6.42182" height="12.8436" fill="#FCC80F"/>
<rect x="199.326" y="25.7285" width="6.4199" height="6.4199" fill="#FCC80F"/>
<rect x="96.5752" y="38.5701" width="83.4837" height="6.42182" fill="#834D29"/>
<rect x="103" y="44.9938" width="38.5309" height="6.42182" fill="#834D29"/>
<rect x="186.479" y="38.5701" width="12.8436" height="6.42182" fill="#834D29"/>
<rect x="173.637" y="44.9938" width="32.1091" height="6.42182" fill="#834D29"/>
<rect x="90.1514" y="19.3048" width="70.64" height="6.42182" fill="#834D29"/>
<rect x="90.1514" y="25.7285" width="19.2655" height="6.42182" fill="#834D29"/>
<rect x="115.841" y="25.7285" width="77.0618" height="6.42182" fill="#834D29"/>
<rect x="167.221" y="19.3048" width="25.6873" height="6.42182" fill="#834D29"/>
<rect x="77.3105" y="6.45685" width="102.749" height="6.42182" fill="#834D29"/>
<rect x="141.53" y="51.4178" width="32.1091" height="6.42182" fill="#FEE401"/>
<rect x="141.53" y="77.1009" width="32.1091" height="6.42182" fill="#F1A917"/>
<rect x="141.53" y="57.8354" width="6.42182" height="19.2655" fill="#FFCB07"/>
<rect x="147.949" y="64.2532" width="6.4199" height="6.4199" fill="#F0A513"/>
<rect x="147.949" y="70.6772" width="6.4199" height="6.4199" fill="#FFCB07"/>
<rect x="160.796" y="64.2532" width="6.4199" height="6.4199" fill="#F0A513"/>
<rect x="160.796" y="70.6772" width="6.4199" height="6.4199" fill="#FFCB07"/>
<rect x="167.221" y="57.8354" width="6.42182" height="19.2655" fill="#FFCB07"/>
</svg>
