<svg width="24" height="24" viewBox="0 0 24 24" fill="none" xmlns="http://www.w3.org/2000/svg">
<path d="M13.8749 9.98247C14.0555 10.5044 14.625 10.7811 15.1469 10.6005C15.6688 10.4199 15.9455 9.85037 15.7649 9.32845L13.8749 9.98247ZM13.1999 8.43323L13.2438 7.4342C13.2292 7.43356 13.2146 7.43323 13.1999 7.43323L13.1999 8.43323ZM10.7999 12.0999V13.0999V12.0999ZM13.1999 15.7666L13.1999 16.7666L13.1999 15.7666ZM10.7999 15.7666L10.756 16.7656C10.7706 16.7662 10.7853 16.7666 10.7999 16.7666L10.7999 15.7666ZM10.1249 14.2173C9.94432 13.6954 9.37481 13.4187 8.85289 13.5993C8.33097 13.7799 8.05428 14.3494 8.23488 14.8714L10.1249 14.2173ZM12.9999 6.5999C12.9999 6.04762 12.5522 5.5999 11.9999 5.5999C11.4476 5.5999 10.9999 6.04762 10.9999 6.5999H12.9999ZM10.9999 8.43323C10.9999 8.98552 11.4476 9.43323 11.9999 9.43323C12.5522 9.43323 12.9999 8.98552 12.9999 8.43323H10.9999ZM12.9999 15.7666C12.9999 15.2143 12.5522 14.7666 11.9999 14.7666C11.4476 14.7666 10.9999 15.2143 10.9999 15.7666H12.9999ZM10.9999 17.5999C10.9999 18.1522 11.4476 18.5999 11.9999 18.5999C12.5522 18.5999 12.9999 18.1522 12.9999 17.5999H10.9999ZM15.7649 9.32845C15.5812 8.79764 15.2448 8.33203 14.7959 7.99338L13.5914 9.58996C13.7199 9.68695 13.8197 9.823 13.8749 9.98247L15.7649 9.32845ZM14.7959 7.99338C14.3468 7.65456 13.8063 7.45894 13.2438 7.4342L13.156 9.43227C13.3114 9.4391 13.4631 9.49315 13.5914 9.58996L14.7959 7.99338ZM13.1999 7.43323H10.7999V9.43323H13.1999V7.43323ZM10.7999 7.43323C10.0513 7.43323 9.33717 7.73629 8.81354 8.26961L10.2407 9.67079C10.3922 9.51649 10.5937 9.43323 10.7999 9.43323V7.43323ZM8.81354 8.26961C8.29053 8.80232 7.9999 9.52098 7.9999 10.2666H9.9999C9.9999 10.0397 10.0886 9.82572 10.2407 9.67079L8.81354 8.26961ZM7.9999 10.2666C7.9999 11.0122 8.29053 11.7308 8.81354 12.2635L10.2407 10.8623C10.0886 10.7074 9.9999 10.4934 9.9999 10.2666H7.9999ZM8.81354 12.2635C9.33717 12.7968 10.0513 13.0999 10.7999 13.0999L10.7999 11.0999C10.5937 11.0999 10.3922 11.0166 10.2407 10.8623L8.81354 12.2635ZM10.7999 13.0999H13.1999V11.0999H10.7999V13.0999ZM13.1999 13.0999C13.4061 13.0999 13.6076 13.1832 13.7591 13.3375L15.1863 11.9363C14.6626 11.403 13.9485 11.0999 13.1999 11.0999V13.0999ZM13.7591 13.3375C13.9112 13.4924 13.9999 13.7064 13.9999 13.9332H15.9999C15.9999 13.1876 15.7093 12.469 15.1863 11.9363L13.7591 13.3375ZM13.9999 13.9332C13.9999 14.1601 13.9112 14.3741 13.7591 14.529L15.1863 15.9302C15.7093 15.3975 15.9999 14.6788 15.9999 13.9332H13.9999ZM13.7591 14.529C13.6076 14.6833 13.4061 14.7666 13.1999 14.7666L13.1999 16.7666C13.9485 16.7666 14.6626 16.4635 15.1863 15.9302L13.7591 14.529ZM13.1999 14.7666H10.7999V16.7666H13.1999V14.7666ZM10.8438 14.7675C10.6884 14.7607 10.5367 14.7067 10.4084 14.6098L9.20386 16.2064C9.65295 16.5452 10.1935 16.7409 10.756 16.7656L10.8438 14.7675ZM10.4084 14.6098C10.2799 14.5129 10.1801 14.3768 10.1249 14.2173L8.23488 14.8714C8.41856 15.4022 8.755 15.8678 9.20386 16.2064L10.4084 14.6098ZM10.9999 6.5999V8.43323H12.9999V6.5999H10.9999ZM10.9999 15.7666V17.5999H12.9999V15.7666H10.9999ZM20.5999 11.9999C20.5999 16.7495 16.7495 20.5999 11.9999 20.5999V22.5999C17.8541 22.5999 22.5999 17.8541 22.5999 11.9999H20.5999ZM11.9999 20.5999C7.25025 20.5999 3.3999 16.7495 3.3999 11.9999H1.3999C1.3999 17.8541 6.14568 22.5999 11.9999 22.5999V20.5999ZM3.3999 11.9999C3.3999 7.25025 7.25025 3.3999 11.9999 3.3999V1.3999C6.14568 1.3999 1.3999 6.14568 1.3999 11.9999H3.3999ZM11.9999 3.3999C16.7495 3.3999 20.5999 7.25025 20.5999 11.9999H22.5999C22.5999 6.14568 17.8541 1.3999 11.9999 1.3999V3.3999Z" fill="#F9D60A"/>
</svg>
