<svg width="1112" height="777" viewBox="0 0 1112 777" fill="none" xmlns="http://www.w3.org/2000/svg">
<rect x="88.1953" y="758.464" width="246.94" height="17.6386" fill="#B8A590"/>
<rect x="335.131" y="740.824" width="229.301" height="17.6386" fill="#B8A590"/>
<rect x="564.432" y="758.464" width="246.94" height="17.6386" fill="#B8A590"/>
<rect x="811.373" y="740.824" width="88.1928" height="17.6386" fill="#B8A590"/>
<rect x="899.56" y="758.464" width="158.747" height="17.6386" fill="#B8A590"/>
<rect width="17.6386" height="423.325" transform="matrix(-1 0 0 1 35.2754 105.841)" fill="#B8A590"/>
<rect x="35.2754" y="529.169" width="17.6386" height="211.663" fill="#B8A590"/>
<rect x="1058.31" y="634.996" width="17.6386" height="123.47" fill="#B8A590"/>
<rect x="1075.95" y="282.228" width="17.6386" height="352.771" fill="#B8A590"/>
<rect x="1058.31" y="229.314" width="17.6386" height="52.9157" fill="#B8A590"/>
<rect x="1040.67" y="176.394" width="17.6386" height="52.9157" fill="#B8A590"/>
<rect x="1058.31" y="158.754" width="35.2771" height="17.6386" fill="#B8A590"/>
<rect x="1093.59" y="52.9208" width="17.6386" height="105.831" fill="#B8A590"/>
<rect x="1075.95" y="35.2867" width="17.6386" height="17.6386" fill="#B8A590"/>
<rect x="776.094" y="17.6469" width="299.855" height="17.6386" fill="#B8A590"/>
<rect x="652.626" y="35.2867" width="123.47" height="17.6386" fill="#B8A590"/>
<rect x="158.743" y="17.6469" width="493.88" height="17.6386" fill="#B8A590"/>
<rect x="105.829" y="35.2867" width="52.9157" height="17.6386" fill="#B8A590"/>
<rect x="88.1953" y="52.9209" width="17.6386" height="35.2771" fill="#B8A590"/>
<rect x="35.2754" y="88.2007" width="52.9157" height="17.6386" fill="#B8A590"/>
<rect x="52.9092" y="740.824" width="35.2771" height="17.6386" fill="#B8A590"/>
<rect x="158.743" y="35.2867" width="493.88" height="705.542" fill="#B8A590"/>
<rect x="105.829" y="52.9209" width="52.9157" height="687.904" fill="#B8A590"/>
<rect x="52.9092" y="105.841" width="52.9157" height="423.325" fill="#B8A590"/>
<rect x="35.2754" y="105.841" width="17.6386" height="423.325" fill="#B8A590"/>
<rect x="1058.31" y="282.228" width="17.6386" height="352.771" fill="#B8A590"/>
<rect x="1058.31" y="52.9208" width="35.2771" height="105.831" fill="#B8A590"/>
<rect x="52.9092" y="529.169" width="52.9157" height="211.663" fill="#B8A590"/>
<rect x="88.1953" y="740.824" width="246.94" height="17.6386" fill="#B8A590"/>
<rect x="564.432" y="740.824" width="246.94" height="17.6386" fill="#B8A590"/>
<rect x="899.56" y="282.228" width="158.747" height="476.241" fill="#B8A590"/>
<rect x="652.626" y="52.9209" width="246.94" height="687.904" fill="#B8A590"/>
<rect x="776.094" y="35.2867" width="299.855" height="17.6386" fill="#B8A590"/>
<rect x="1040.67" y="229.314" width="17.6386" height="52.9157" fill="#B8A590"/>
<rect x="1040.67" y="52.9209" width="17.6386" height="123.47" fill="#B8A590"/>
<rect x="899.56" y="52.9209" width="141.108" height="229.301" fill="#B8A590"/>
<rect x="70.5605" y="740.817" width="246.94" height="17.6386" fill="#DCC7AF"/>
<rect x="317.494" y="723.177" width="229.301" height="17.6386" fill="#DCC7AF"/>
<rect x="564.436" y="740.817" width="229.301" height="17.6386" fill="#DCC7AF"/>
<rect x="793.736" y="723.177" width="88.1928" height="17.6386" fill="#DCC7AF"/>
<rect x="899.562" y="740.817" width="141.108" height="17.6386" fill="#DCC7AF"/>
<rect width="17.6386" height="423.325" transform="matrix(-1 0 0 1 17.6387 88.1938)" fill="#DCC7AF"/>
<rect x="17.6387" y="511.522" width="17.6386" height="211.663" fill="#DCC7AF"/>
<rect x="1040.67" y="617.35" width="17.6386" height="123.47" fill="#DCC7AF"/>
<rect x="1058.32" y="264.581" width="17.6386" height="352.771" fill="#DCC7AF"/>
<rect x="1040.67" y="211.667" width="17.6386" height="52.9157" fill="#DCC7AF"/>
<rect x="1023.04" y="158.747" width="17.6386" height="52.9157" fill="#DCC7AF"/>
<rect x="1040.67" y="141.108" width="35.2771" height="17.6386" fill="#DCC7AF"/>
<rect x="1075.95" y="35.2738" width="17.6386" height="105.831" fill="#DCC7AF"/>
<rect x="1058.32" y="17.6399" width="17.6386" height="17.6386" fill="#DCC7AF"/>
<rect x="758.457" width="299.855" height="17.6386" fill="#DCC7AF"/>
<rect x="634.989" y="17.6399" width="123.47" height="17.6386" fill="#DCC7AF"/>
<rect x="141.106" width="493.88" height="17.6386" fill="#DCC7AF"/>
<rect x="88.1924" y="17.6399" width="52.9157" height="17.6386" fill="#DCC7AF"/>
<rect x="70.5605" y="35.2738" width="17.6386" height="35.2771" fill="#DCC7AF"/>
<rect x="17.6387" y="70.5538" width="52.9157" height="17.6386" fill="#DCC7AF"/>
<rect x="35.2725" y="723.177" width="35.2771" height="17.6386" fill="#DCC7AF"/>
<rect x="141.106" y="17.6399" width="493.88" height="705.542" fill="#DCC7AF"/>
<rect x="88.1924" y="35.2738" width="52.9157" height="687.904" fill="#DCC7AF"/>
<rect x="35.2725" y="88.1938" width="52.9157" height="423.325" fill="#DCC7AF"/>
<rect x="17.6387" y="88.1938" width="17.6386" height="423.325" fill="#DCC7AF"/>
<rect x="1040.67" y="264.581" width="17.6386" height="352.771" fill="#DCC7AF"/>
<rect x="1040.67" y="35.2738" width="35.2771" height="105.831" fill="#DCC7AF"/>
<rect x="35.2725" y="511.522" width="52.9157" height="211.663" fill="#DCC7AF"/>
<rect x="70.5605" y="723.177" width="246.94" height="17.6386" fill="#DCC7AF"/>
<rect x="546.795" y="723.177" width="246.94" height="17.6386" fill="#DCC7AF"/>
<rect x="881.923" y="264.581" width="158.747" height="476.241" fill="#DCC7AF"/>
<rect x="634.989" y="35.2738" width="246.94" height="687.904" fill="#DCC7AF"/>
<rect x="758.457" y="17.6399" width="299.855" height="17.6386" fill="#DCC7AF"/>
<rect x="1023.04" y="211.667" width="17.6386" height="52.9157" fill="#DCC7AF"/>
<rect x="1023.04" y="35.2738" width="17.6386" height="123.47" fill="#DCC7AF"/>
<rect x="881.923" y="35.2738" width="141.108" height="229.301" fill="#DCC7AF"/>
<rect x="70.5605" y="70.5538" width="17.6386" height="17.6386" fill="#DCC7AF"/>
<rect x="1005.4" y="211.667" width="17.6386" height="352.771" fill="#BAA48B"/>
<rect x="1005.4" y="211.667" width="17.6386" height="352.771" fill="#BAA48B"/>
<rect x="88.1924" y="211.667" width="17.6386" height="352.771" fill="#BAA48B"/>
<rect x="105.829" y="158.753" width="17.6386" height="88.1928" transform="rotate(-180 105.829 158.753)" fill="#BAA48B"/>
<rect x="176.383" y="70.5596" width="17.6386" height="70.5542" transform="rotate(90 176.383 70.5596)" fill="#BAA48B"/>
<rect x="105.828" y="105.841" width="17.6386" height="17.6386" fill="#BAA48B"/>
<rect x="123.474" y="88.2006" width="17.6386" height="17.6386" fill="#BAA48B"/>
<rect x="141.108" y="123.474" width="17.6386" height="17.6386" fill="#BAA48B"/>
<rect width="17.6386" height="88.1928" transform="matrix(-1 0 0 1 105.829 617.345)" fill="#BAA48B"/>
<rect width="17.6386" height="70.5542" transform="matrix(0 -1 -1 0 176.383 705.539)" fill="#BAA48B"/>
<rect width="17.6386" height="17.6386" transform="matrix(1 0 0 -1 105.828 670.266)" fill="#BAA48B"/>
<rect width="17.6386" height="17.6386" transform="matrix(1 0 0 -1 123.474 687.905)" fill="#BAA48B"/>
<rect width="17.6386" height="17.6386" transform="matrix(1 0 0 -1 141.108 652.626)" fill="#BAA48B"/>
<rect x="1005.4" y="617.345" width="17.6386" height="88.1928" fill="#BAA48B"/>
<rect x="934.849" y="705.539" width="17.6386" height="70.5542" transform="rotate(-90 934.849 705.539)" fill="#BAA48B"/>
<rect x="1005.4" y="670.266" width="17.6386" height="17.6386" transform="rotate(180 1005.4 670.266)" fill="#BAA48B"/>
<rect x="987.756" y="687.905" width="17.6386" height="17.6386" transform="rotate(180 987.756 687.905)" fill="#BAA48B"/>
<rect x="970.124" y="652.626" width="17.6386" height="17.6386" transform="rotate(180 970.124 652.626)" fill="#BAA48B"/>
<rect width="17.6386" height="88.1928" transform="matrix(1 0 0 -1 1005.4 158.753)" fill="#BAA48B"/>
<rect width="17.6386" height="70.5542" transform="matrix(0 1 1 0 934.849 70.5596)" fill="#BAA48B"/>
<rect width="17.6386" height="17.6386" transform="matrix(-1 0 0 1 1005.4 105.841)" fill="#BAA48B"/>
<rect width="17.6386" height="17.6386" transform="matrix(-1 0 0 1 987.756 88.2006)" fill="#BAA48B"/>
<rect width="17.6386" height="17.6386" transform="matrix(-1 0 0 1 970.124 123.474)" fill="#BAA48B"/>
<rect width="17.6386" height="352.771" transform="matrix(1 0 0 -1 1058.32 617.35)" fill="#E9D2B8"/>
<rect x="1058.32" y="740.817" width="17.6386" height="123.47" transform="rotate(180 1058.32 740.817)" fill="#E9D2B8"/>
<rect x="1040.67" y="758.457" width="141.108" height="17.6386" transform="rotate(180 1040.67 758.457)" fill="#E9D2B8"/>
<rect x="899.562" y="740.817" width="105.831" height="17.6386" transform="rotate(180 899.562 740.817)" fill="#E9D2B8"/>
<rect x="793.736" y="758.457" width="229.301" height="17.6386" transform="rotate(180 793.736 758.457)" fill="#E9D2B8"/>
<rect x="564.436" y="740.817" width="246.94" height="17.6386" transform="rotate(180 564.436 740.817)" fill="#E9D2B8"/>
<rect x="317.494" y="758.457" width="246.94" height="17.6386" transform="rotate(180 317.494 758.457)" fill="#E9D2B8"/>
<rect x="70.5605" y="740.817" width="35.2771" height="17.6386" transform="rotate(180 70.5605 740.817)" fill="#E9D2B8"/>
<rect x="35.2725" y="723.183" width="17.6386" height="211.663" transform="rotate(180 35.2725 723.183)" fill="#E9D2B8"/>
<rect x="17.6387" y="511.522" width="17.6386" height="423.325" transform="rotate(180 17.6387 511.522)" fill="#E9D2B8"/>
<rect width="17.6386" height="35.2771" transform="matrix(1 0 0 -1 1040.67 246.941)" fill="#E9D2B8"/>
<rect width="17.6386" height="52.9157" transform="matrix(1 0 0 -1 1023.04 211.667)" fill="#E9D2B8"/>
<rect width="17.6386" height="17.6386" transform="matrix(1 0 0 -1 1058.32 158.747)" fill="#E9D2B8"/>
<rect width="17.6386" height="35.2771" transform="matrix(1 0 0 -1 1058.32 52.9139)" fill="#E9D2B8"/>
<rect width="17.6386" height="35.2771" transform="matrix(1 0 0 -1 1040.67 35.2798)" fill="#E9D2B8"/>
<rect width="17.6386" height="105.831" transform="matrix(1 0 0 -1 1075.95 141.108)" fill="#E9D2B8"/>
<rect x="17.6387" y="70.5596" width="52.9157" height="17.6386" fill="#E9D2B8"/>
<rect x="70.5605" y="35.2798" width="17.6386" height="35.2771" fill="#E9D2B8"/>
<rect x="88.1924" y="17.6399" width="52.9157" height="17.6386" fill="#E9D2B8"/>
<rect x="141.106" width="493.88" height="17.6386" fill="#E9D2B8"/>
<rect x="634.989" y="17.6399" width="123.47" height="17.6386" fill="#E9D2B8"/>
<rect x="758.457" width="282.217" height="17.6386" fill="#E9D2B8"/>
<rect x="1040.67" y="476.242" width="17.6386" height="35.2771" fill="#E9D2B8"/>
<rect x="1040.67" y="317.495" width="17.6386" height="17.6386" fill="#E9D2B8"/>
<rect x="1040.67" y="70.5596" width="35.2771" height="17.6386" fill="#E9D2B8"/>
<rect x="1058.32" y="88.1938" width="17.6386" height="17.6386" fill="#E9D2B8"/>
<rect x="811.377" y="17.6399" width="123.47" height="17.6386" fill="#E9D2B8"/>
<rect x="846.65" y="35.2798" width="35.2771" height="17.6386" fill="#E9D2B8"/>
<rect x="440.962" y="17.6399" width="35.2771" height="17.6386" fill="#E9D2B8"/>
<rect x="458.602" y="35.2798" width="17.6386" height="17.6386" fill="#E9D2B8"/>
<rect x="564.436" y="17.6399" width="52.9157" height="17.6386" fill="#E9D2B8"/>
<rect x="141.106" y="17.6399" width="17.6386" height="17.6386" fill="#E9D2B8"/>
<rect x="141.106" y="35.2798" width="35.2771" height="17.6386" fill="#E9D2B8"/>
<rect x="17.6387" y="88.1938" width="17.6386" height="123.47" fill="#E9D2B8"/>
<rect x="35.2725" y="88.1938" width="17.6386" height="70.5542" fill="#E9D2B8"/>
<rect x="17.6387" y="352.775" width="17.6386" height="88.1928" fill="#E9D2B8"/>
<rect x="35.2725" y="423.328" width="17.6386" height="52.9157" fill="#E9D2B8"/>
<rect x="17.6387" y="476.242" width="17.6386" height="35.2771" fill="#E9D2B8"/>
<rect x="35.2725" y="529.156" width="17.6386" height="123.47" fill="#E9D2B8"/>
<rect x="35.2725" y="670.27" width="17.6386" height="17.6386" fill="#E9D2B8"/>
<rect x="141.106" y="723.183" width="52.9157" height="17.6386" fill="#E9D2B8"/>
<rect x="211.666" y="723.183" width="35.2771" height="17.6386" fill="#E9D2B8"/>
<rect x="423.327" y="705.543" width="70.5542" height="17.6386" fill="#E9D2B8"/>
<rect x="670.269" y="723.183" width="17.6386" height="17.6386" fill="#E9D2B8"/>
<rect x="740.816" y="723.183" width="35.2771" height="17.6386" fill="#E9D2B8"/>
<rect x="846.65" y="705.543" width="35.2771" height="17.6386" fill="#E9D2B8"/>
<rect x="970.124" y="723.183" width="17.6386" height="17.6386" fill="#E9D2B8"/>
</svg>
