<svg width="32" height="32" viewBox="0 0 32 32" fill="none" xmlns="http://www.w3.org/2000/svg">
<path d="M26.3999 18.9874C25.1936 17.0374 23.5499 15.4374 22.0686 13.7062C20.5124 11.8874 19.2124 9.79367 17.2811 8.33117C16.4811 7.72492 15.4124 7.13117 14.3686 7.37492C12.9311 7.71242 12.0562 9.09367 11.3812 10.2999C10.4437 11.9562 9.7249 13.7249 8.85615 15.4124C7.95615 17.1562 7.0874 18.9312 6.40615 20.7749C6.3749 20.8562 6.3249 20.9124 6.26865 20.9374C5.89365 21.6812 5.50615 22.5624 5.76865 23.3437C5.9874 23.9937 6.6124 24.3812 7.2624 24.5874C8.14365 24.8687 9.08115 24.9499 10.0062 24.9687C12.0687 24.9999 14.0812 24.6187 16.1311 24.5249C17.9374 24.4437 19.7561 24.5312 21.5624 24.6437C22.9561 24.7312 24.5311 24.8499 25.8311 24.2437C26.7436 23.8187 27.4624 22.9374 27.4436 21.8937C27.4249 20.8562 26.9436 19.8624 26.3999 18.9874ZM16.9624 22.6687C16.3999 24.0374 13.7311 24.1687 13.9061 22.3437C13.9124 22.2437 13.9561 22.1749 14.0124 22.1312C14.0374 21.8562 14.0936 21.5812 14.2249 21.3437C14.4999 20.8499 14.9749 20.6124 15.5374 20.6499C16.0561 20.6812 16.6311 20.9062 16.9061 21.3687C17.1186 21.7374 17.1249 22.2749 16.9624 22.6687ZM19.2936 15.6874C19.0374 16.2562 18.5311 16.7374 17.9436 16.9624C17.6186 17.0874 17.2124 17.1374 16.9249 17.3374C16.5811 17.5749 16.6124 17.9437 16.6436 18.3249C16.6936 18.9874 16.5811 19.6749 15.8374 19.8812C15.2749 20.0312 14.4436 19.9999 14.0186 19.5437C13.7374 19.2374 13.6749 18.8937 13.7249 18.4874C13.7499 18.3062 13.7936 18.1124 13.7749 17.9249C13.7499 17.7187 13.6936 17.5124 13.6499 17.3062C13.5624 16.8999 13.5624 16.4999 13.8061 16.1499C13.9936 15.8812 14.2686 15.6999 14.5624 15.5499C15.1311 15.2562 15.9124 14.9687 16.0874 14.2999C16.1999 13.8749 16.1812 13.3687 16.0124 12.9562C15.9562 12.8187 15.8561 12.6124 15.6874 12.5874C15.4061 12.5374 15.2061 12.7687 15.0249 12.9437C14.7311 13.2249 14.3999 13.4812 13.9749 13.4812C13.5749 13.4812 13.1312 13.2937 12.7374 13.3937C12.4374 13.4687 12.2374 13.1749 12.2874 12.9562C12.2624 12.9124 12.2437 12.8624 12.2374 12.8062C12.2187 12.6249 12.2249 12.4374 12.2687 12.2624C12.6249 10.9187 14.0999 9.74367 15.5061 9.87492C16.9061 10.0062 17.9749 11.1562 18.6749 12.2937C19.2686 13.2499 19.7999 14.5624 19.2936 15.6874Z" fill="#D6E5E5"/>
<path d="M16.3186 21.7376C16.1873 21.4501 15.7561 21.3439 15.4748 21.3314C14.6811 21.2814 14.6748 22.1876 14.6748 22.7626C14.6748 22.7939 14.6686 22.8189 14.6623 22.8501C14.9873 23.2689 16.0686 22.9626 16.2998 22.4626C16.4061 22.2376 16.4186 21.9501 16.3186 21.7376ZM18.5436 13.5189C18.3123 12.9501 17.9811 12.4189 17.5873 11.9439C17.1561 11.4189 16.6561 10.9064 16.0061 10.6689C15.2686 10.4064 14.5373 10.5689 13.9373 11.0501C13.4623 11.4314 12.8811 12.0251 12.9123 12.6876C13.1248 12.6876 13.3311 12.7189 13.5498 12.7564C13.9998 12.8314 14.2436 12.7314 14.5623 12.4251C14.9436 12.0564 15.4498 11.7314 15.9936 11.9689C16.7873 12.3126 16.9248 13.4939 16.7998 14.2439C16.7061 14.7939 16.3748 15.2689 15.9248 15.5939C15.6623 15.7814 15.3748 15.9251 15.0811 16.0626C14.8498 16.1689 14.5811 16.2876 14.4186 16.4876C14.1748 16.7814 14.3123 17.1564 14.3873 17.4876C14.4686 17.8439 14.4561 18.1626 14.4061 18.5251C14.3686 18.8501 14.4123 19.1001 14.7623 19.2001C14.9811 19.2626 15.2311 19.3064 15.4561 19.2689C15.7498 19.2189 15.9811 19.0876 15.9748 18.7626C15.9686 18.3939 15.8811 18.0001 15.9623 17.6314C16.1498 16.7939 16.8561 16.6189 17.5623 16.3751C18.1061 16.1814 18.6186 15.7501 18.7498 15.1689C18.8748 14.6064 18.7561 14.0376 18.5436 13.5189Z" fill="#FEBF10"/>
<path d="M28.119 17.1749C27.1252 15.7561 25.9565 14.4749 24.844 13.1436C23.7627 11.8499 22.819 10.4686 21.8502 9.08738C20.9002 7.72488 19.9065 6.36238 18.6377 5.27488C17.7377 4.49988 16.6565 3.79988 15.4565 3.62488C13.569 3.34988 12.094 4.66238 11.0565 6.08738C9.78771 7.83113 8.93146 9.85613 8.05646 11.8124C7.66896 12.6749 7.29396 13.5499 6.84396 14.3874C6.40646 15.1999 5.91896 15.9874 5.44396 16.7811C4.84396 17.7936 4.25646 18.8124 3.75646 19.8749C3.28146 20.8936 2.85021 21.9624 2.68771 23.0874C2.55646 23.9936 2.61896 24.9749 3.18771 25.7311C3.98146 26.7874 5.38771 27.1124 6.61896 27.3186C6.63146 27.3186 6.64396 27.3249 6.66271 27.3249C6.98146 27.3374 7.30021 27.3436 7.61271 27.3499C11.7065 27.4249 15.8127 27.1499 19.9065 27.3999C21.669 27.5061 23.4377 27.7374 25.2002 27.4936C26.769 27.2749 28.4127 26.6561 29.3752 25.3311C31.2252 22.7811 29.7002 19.4311 28.119 17.1749ZM27.794 23.3061C26.394 25.9374 22.8752 25.3811 20.419 25.2686C18.444 25.1811 16.4565 25.1061 14.494 25.3561C13.719 25.4561 12.9377 25.5374 12.1502 25.5936C11.1627 25.6624 10.1752 25.6874 9.18771 25.6249C8.29396 25.5624 7.35646 25.4311 6.53771 25.0499C5.84396 24.7249 5.25021 24.1811 5.06896 23.4186C4.80646 22.2874 5.38146 21.1749 5.87521 20.1936C5.88771 20.1749 5.89396 20.1561 5.90646 20.1436C6.53771 18.4936 7.31271 16.8874 8.12521 15.3186C8.96896 13.6936 9.66271 11.9999 10.5377 10.3936C11.2565 9.08113 12.1065 7.59988 13.5252 6.94363C14.544 6.47488 15.6752 6.61863 16.6502 7.12488C17.7627 7.70613 18.694 8.59363 19.5252 9.51863C20.3815 10.4686 21.1565 11.4749 21.944 12.4811C23.2815 14.1749 24.8502 15.6686 26.144 17.4061C27.3002 18.9499 28.844 21.3311 27.794 23.3061Z" fill="#FEBF10"/>
<path d="M30.0625 19.1937C28.6563 16.0312 25.975 13.6875 23.9688 10.925C22.0938 8.34371 20.4438 5.33121 17.5938 3.68746C16.7 3.16871 15.6688 2.84371 14.625 2.91246C13.7313 2.96871 12.8875 3.35621 12.1813 3.89996C10.5375 5.16246 9.49378 7.13121 8.60628 8.96246C7.73753 10.7562 7.04378 12.6437 6.06253 14.3812C5.00003 16.2562 3.80628 18.0562 2.93128 20.0312C2.13128 21.8437 1.33753 24.275 2.58753 26.0687C3.38128 27.2062 4.77503 27.6687 6.08753 27.9187C6.14378 27.9625 6.21253 27.9937 6.30003 28C10.4125 28.1625 14.5313 27.8812 18.6438 28.0312C22.025 28.15 25.95 29.0125 28.8813 26.8C29.9813 25.9687 30.6688 24.725 30.8438 23.3625C31.05 21.9062 30.65 20.5062 30.0625 19.1937ZM29.3813 25.3312C28.4188 26.6562 26.775 27.275 25.2063 27.4937C23.4438 27.7375 21.675 27.5125 19.9125 27.4C15.8188 27.15 11.7188 27.425 7.61878 27.35C7.30003 27.3437 6.98128 27.3375 6.66878 27.325C6.65628 27.3187 6.64378 27.3187 6.62503 27.3187C5.39378 27.1125 3.98753 26.7812 3.19378 25.7312C2.62503 24.975 2.56253 23.9937 2.69378 23.0875C2.85628 21.9687 3.28128 20.8937 3.76253 19.875C4.26253 18.8125 4.85003 17.7875 5.45003 16.7812C5.91878 15.9875 6.41253 15.2062 6.85003 14.3875C7.30003 13.55 7.67503 12.6812 8.06253 11.8125C8.93753 9.84996 9.79378 7.83121 11.0625 6.08746C12.1 4.66246 13.575 3.34996 15.4625 3.62496C16.6625 3.79996 17.7438 4.49996 18.6438 5.27496C19.9125 6.36246 20.9063 7.72496 21.8563 9.08746C22.8188 10.4687 23.7688 11.85 24.85 13.1437C25.9563 14.475 27.125 15.7562 28.125 17.175C29.7 19.4312 31.225 22.7812 29.3813 25.3312Z" fill="black"/>
<path d="M26.1501 17.4001C24.8626 15.6626 23.2876 14.1689 21.9501 12.4751C21.1626 11.4751 20.3813 10.4626 19.5313 9.5126C18.7001 8.5876 17.7688 7.7001 16.6563 7.11885C15.6813 6.6126 14.5501 6.46885 13.5313 6.9376C12.1126 7.59385 11.2626 9.0751 10.5438 10.3876C9.66882 11.9939 8.97508 13.6876 8.13133 15.3126C7.31883 16.8814 6.54383 18.4876 5.91258 20.1376C5.90008 20.1564 5.88758 20.1689 5.88133 20.1876C5.38758 21.1626 4.81258 22.2814 5.07508 23.4126C5.25008 24.1814 5.85008 24.7189 6.54383 25.0439C7.36258 25.4314 8.30008 25.5626 9.19383 25.6189C10.1813 25.6876 11.1688 25.6564 12.1563 25.5876C12.9376 25.5314 13.7188 25.4501 14.5001 25.3501C16.4626 25.1001 18.4501 25.1751 20.4251 25.2626C22.8813 25.3751 26.4001 25.9314 27.8001 23.3001C28.8438 21.3314 27.3001 18.9501 26.1501 17.4001ZM25.8251 24.2501C24.5251 24.8564 22.9501 24.7376 21.5563 24.6501C19.7501 24.5376 17.9376 24.4501 16.1251 24.5314C14.0751 24.6251 12.0626 25.0064 10.0001 24.9751C9.08133 24.9626 8.13758 24.8751 7.25633 24.5939C6.60633 24.3876 5.98133 24.0001 5.76258 23.3501C5.50008 22.5626 5.88758 21.6814 6.26258 20.9439C6.31883 20.9126 6.36883 20.8626 6.40008 20.7814C7.08133 18.9376 7.95008 17.1626 8.85008 15.4189C9.71883 13.7251 10.4376 11.9626 11.3751 10.3064C12.0563 9.10635 12.9251 7.71885 14.3626 7.38135C15.4063 7.1376 16.4751 7.73135 17.2751 8.3376C19.2063 9.8001 20.5063 11.8939 22.0626 13.7126C23.5501 15.4439 25.1876 17.0439 26.3938 18.9939C26.9376 19.8689 27.4188 20.8626 27.4313 21.9064C27.4501 22.9439 26.7376 23.8251 25.8251 24.2501Z" fill="black"/>
<path d="M16.8999 21.3687C16.6249 20.8999 16.0499 20.6812 15.5312 20.6499C14.9687 20.6187 14.4937 20.8499 14.2187 21.3437C14.0874 21.5812 14.0312 21.8562 14.0062 22.1312C13.9499 22.1749 13.9124 22.2437 13.8999 22.3437C13.7249 24.1687 16.3999 24.0374 16.9562 22.6687C17.1249 22.2749 17.1187 21.7374 16.8999 21.3687ZM16.3062 22.4499C16.0749 22.9499 14.9937 23.2562 14.6687 22.8374C14.6749 22.8124 14.6812 22.7812 14.6812 22.7499C14.6812 22.1749 14.6812 21.2749 15.4812 21.3187C15.7624 21.3374 16.1937 21.4437 16.3249 21.7249C16.4187 21.9499 16.4062 22.2374 16.3062 22.4499ZM18.6687 12.2749C17.9687 11.1374 16.8999 9.98743 15.4999 9.85618C14.0937 9.72493 12.6187 10.9062 12.2624 12.2437C12.2187 12.4187 12.2124 12.6124 12.2312 12.7874C12.2374 12.8499 12.2562 12.8999 12.2812 12.9374C12.2312 13.1562 12.4312 13.4499 12.7312 13.3749C13.1249 13.2749 13.5687 13.4687 13.9687 13.4624C14.3937 13.4624 14.7312 13.1999 15.0187 12.9249C15.1999 12.7499 15.3999 12.5249 15.6812 12.5687C15.8499 12.5999 15.9499 12.7999 16.0062 12.9374C16.1749 13.3499 16.1937 13.8562 16.0812 14.2812C15.9062 14.9499 15.1312 15.2374 14.5562 15.5312C14.2687 15.6812 13.9937 15.8624 13.7999 16.1312C13.5562 16.4812 13.5562 16.8812 13.6437 17.2874C13.6874 17.4937 13.7437 17.6937 13.7687 17.9062C13.7937 18.0937 13.7437 18.2812 13.7187 18.4687C13.6687 18.8749 13.7312 19.2187 14.0124 19.5249C14.4374 19.9812 15.2749 20.0187 15.8312 19.8624C16.5687 19.6624 16.6874 18.9749 16.6374 18.3062C16.6062 17.9312 16.5749 17.5624 16.9187 17.3187C17.2124 17.1124 17.6124 17.0687 17.9374 16.9437C18.5187 16.7187 19.0312 16.2374 19.2874 15.6687C19.7999 14.5624 19.2687 13.2499 18.6687 12.2749ZM18.7499 15.1624C18.6187 15.7499 18.1062 16.1749 17.5624 16.3687C16.8562 16.6187 16.1499 16.7937 15.9624 17.6249C15.8812 17.9937 15.9687 18.3812 15.9749 18.7562C15.9812 19.0812 15.7499 19.2124 15.4562 19.2624C15.2312 19.2999 14.9812 19.2562 14.7624 19.1937C14.4124 19.0937 14.3624 18.8437 14.4062 18.5187C14.4499 18.1562 14.4687 17.8437 14.3874 17.4812C14.3124 17.1437 14.1749 16.7749 14.4187 16.4812C14.5812 16.2812 14.8562 16.1624 15.0812 16.0562C15.3749 15.9187 15.6624 15.7812 15.9249 15.5874C16.3749 15.2624 16.7062 14.7874 16.7999 14.2374C16.9249 13.4937 16.7874 12.3062 15.9937 11.9624C15.4499 11.7249 14.9437 12.0499 14.5624 12.4187C14.2437 12.7249 13.9999 12.8249 13.5499 12.7499C13.3249 12.7124 13.1187 12.6812 12.9124 12.6812C12.8812 12.0187 13.4624 11.4249 13.9374 11.0437C14.5374 10.5624 15.2687 10.3999 16.0062 10.6624C16.6562 10.8937 17.1624 11.4062 17.5874 11.9374C17.9749 12.4124 18.3062 12.9437 18.5437 13.5124C18.7562 14.0374 18.8749 14.6062 18.7499 15.1624Z" fill="black"/>
</svg>
